<svg width="64" height="64" viewBox="0 0 64 64" fill="none" xmlns="http://www.w3.org/2000/svg">
  <rect width="64" height="64" fill="#0a0a0a" />
  <!-- Envelope Icon -->
  <path 
    d="M16 20C16 18.3431 17.3431 17 19 17H45C46.6569 17 48 18.3431 48 20V44C48 45.6569 46.6569 47 45 47H19C17.3431 47 16 45.6569 16 44V20Z" 
    stroke="white" 
    stroke-width="2" 
    fill="none"
    transform="translate(-5,0)"
  />
  <path 
    d="M18 20L32 31L46 20" 
    stroke="white" 
    stroke-width="2" 
    fill="none"
    transform="translate(-5,0)"
  />
  
  <!-- Question Mark -->
  <path
    d="M40 20C42.2091 20 44 21.7909 44 24C44 26.2091 42.2091 28 40 28C38.8954 28 38 28.8954 38 30V31C38 31.5523 37.5523 32 37 32C36.4477 32 36 31.5523 36 31V30C36 27.7909 37.7909 26 40 26C41.1046 26 42 25.1046 42 24C42 22.8954 41.1046 22 40 22C38.8954 22 38 22.8954 38 24C38 24.5523 37.5523 25 37 25C36.4477 25 36 24.5523 36 24C36 21.7909 37.7909 20 40 20ZM40 36C38.8954 36 38 36.8954 38 38C38 39.1046 38.8954 40 40 40C41.1046 40 42 39.1046 42 38C42 36.8954 41.1046 36 40 36Z"
    fill="white"
    transform="translate(15, 0)"
  />
</svg>
